<svg width="40" height="40" viewBox="0 0 100 100" xmlns="http://www.w3.org/2000/svg">
  <defs>
    <linearGradient id="brainGradient" x1="0%" y1="0%" x2="100%" y2="100%">
      <stop offset="0%" style="stop-color:#6366f1;stop-opacity:1" />
      <stop offset="100%" style="stop-color:#8b5cf6;stop-opacity:1" />
    </linearGradient>
    <linearGradient id="leafGradient" x1="0%" y1="0%" x2="100%" y2="100%">
      <stop offset="0%" style="stop-color:#10b981;stop-opacity:1" />
      <stop offset="100%" style="stop-color:#059669;stop-opacity:1" />
    </linearGradient>
  </defs>
  <path d="M 50 10 A 40 40 0 0 1 50 90 A 40 40 0 0 1 50 10 M 50 10 L 50 90 M 50 30 A 20 20 0 0 0 50 70 A 20 20 0 0 0 50 30 M 50 30 L 50 70" fill="url(#brainGradient)" stroke="#fff" stroke-width="3" stroke-linecap="round" />
  <path d="M 70 20 C 85 5 95 30 80 40 L 80 40 L 70 30 L 70 20 Z" fill="url(#leafGradient)" stroke="#fff" stroke-width="2" />
</svg>